PathFileType	4	(X/Y/Z)	C:\Users\Willi\Documents\Github\OpenSimMatlabBasic\ExampleData\Trials\dynamic04\marker_experimental.trc
DataRate	CameraRate	NumFrames	NumMarkers	Units	OrigDataRate	OrigDataStartFrame	OrigNumFrames
150.000000	150.000000	2	179	mm	150.000000	0	366
Frame#	Time	LFHD			LBHD			RFHD			RBHD			C7			T10			CLAV			STRN			RBAK			LSHO			LUPA			LELB			LFRA			LWRB			LWRA			LFIN			RSHO			RUPA			RELB			RFRA			RWRB			RWRA			RFIN			SACR			LASI			LT1			LT2			LT3			LS1			LS2			LS3			LHEE			LTOE			RT1			RT2			RT3			RS1			RS2			RS3			RHEE			RTOE			SACO			SACA			SACL			SACP			RASI			RM5D			LM5D			LKNE			RKNE			LANK			RANK			LKJC			RKJC			LAJC			RAJC			LTHI			RTHI			LTIB			RTIB			P_ForcePlate1			P_ForcePlate2			P_ForcePlate3			funktRKJC			funktLKJC			funktRHIP			funktLHIP			LHJC			RHJC			LKNEshank			RKNEshank			LKJCshank			RKJCshank			LHF			COP_FP1			VECTIP_FP1			RawCentreFP1			COP_FP2			VECTIP_FP2			RawCentreFP2			COP_FP3			VECTIP_FP3			RawCentreFP3			LPelvisAngles			RPelvisAngles			LFootProgressAngles			RFootProgressAngles			LHipAngles			RHipAngles			LKneeAngles			RKneeAngles			LAnkleAngles			RAnkleAngles			LFFootAngles			RFFootAngles			LAbsAnkleAngle			RAbsAnkleAngle			RNeckAngles			LNeckAngles			RSpineAngles			LSpineAngles			LShoulderAngles			LElbowAngles			LWristAngles			RShoulderAngles			RElbowAngles			RWristAngles			RThoraxAngles			LThoraxAngles			RHeadAngles			LHeadAngles			LHipPower			LKneePower			LAnklePower			RHipPower			RKneePower			RAnklePower			LWaistPower			RWaistPower			LNeckPower			RNeckPower			LShoulderPower			RShoulderPower			LElbowPower			RElbowPower			LWristPower			RWristPower			F_ForcePlate1			F_ForcePlate2			F_ForcePlate3			LHipForce			RHipForce			LKneeForce			RKneeForce			LAnkleForce			RAnkleForce			LNormalisedGRF			RNormalisedGRF			LGroundReactionForce			RGroundReactionForce			LGRF			RGRF			LWaistForce			RWaistForce			LNeckForce			RNeckForce			LShoulderForce			RShoulderForce			LElbowForce			RElbowForce			LWristForce			RWristForce			Force_FP1			RawForceFP1			Force_FP2			RawForceFP2			Force_FP3			RawForceFP3			LHipMoment			RHipMoment			LKneeMoment			RKneeMoment			LAnkleMoment			RAnkleMoment			LGroundReactionMoment			RGroundReactionMoment			LWaistMoment			RWaistMoment			LNeckMoment			RNeckMoment			LShoulderMoment			RShoulderMoment			LElbowMoment			RElbowMoment			LWristMoment			RWristMoment			RawMomentFP1			RawMomentFP2			RawMomentFP3			
		X1	Y1	Z1	X2	Y2	Z2	X3	Y3	Z3	X4	Y4	Z4	X5	Y5	Z5	X6	Y6	Z6	X7	Y7	Z7	X8	Y8	Z8	X9	Y9	Z9	X10	Y10	Z10	X11	Y11	Z11	X12	Y12	Z12	X13	Y13	Z13	X14	Y14	Z14	X15	Y15	Z15	X16	Y16	Z16	X17	Y17	Z17	X18	Y18	Z18	X19	Y19	Z19	X20	Y20	Z20	X21	Y21	Z21	X22	Y22	Z22	X23	Y23	Z23	X24	Y24	Z24	X25	Y25	Z25	X26	Y26	Z26	X27	Y27	Z27	X28	Y28	Z28	X29	Y29	Z29	X30	Y30	Z30	X31	Y31	Z31	X32	Y32	Z32	X33	Y33	Z33	X34	Y34	Z34	X35	Y35	Z35	X36	Y36	Z36	X37	Y37	Z37	X38	Y38	Z38	X39	Y39	Z39	X40	Y40	Z40	X41	Y41	Z41	X42	Y42	Z42	X43	Y43	Z43	X44	Y44	Z44	X45	Y45	Z45	X46	Y46	Z46	X47	Y47	Z47	X48	Y48	Z48	X49	Y49	Z49	X50	Y50	Z50	X51	Y51	Z51	X52	Y52	Z52	X53	Y53	Z53	X54	Y54	Z54	X55	Y55	Z55	X56	Y56	Z56	X57	Y57	Z57	X58	Y58	Z58	X59	Y59	Z59	X60	Y60	Z60	X61	Y61	Z61	X62	Y62	Z62	X63	Y63	Z63	X64	Y64	Z64	X65	Y65	Z65	X66	Y66	Z66	X67	Y67	Z67	X68	Y68	Z68	X69	Y69	Z69	X70	Y70	Z70	X71	Y71	Z71	X72	Y72	Z72	X73	Y73	Z73	X74	Y74	Z74	X75	Y75	Z75	X76	Y76	Z76	X77	Y77	Z77	X78	Y78	Z78	X79	Y79	Z79	X80	Y80	Z80	X81	Y81	Z81	X82	Y82	Z82	X83	Y83	Z83	X84	Y84	Z84	X85	Y85	Z85	X86	Y86	Z86	X87	Y87	Z87	X88	Y88	Z88	X89	Y89	Z89	X90	Y90	Z90	X91	Y91	Z91	X92	Y92	Z92	X93	Y93	Z93	X94	Y94	Z94	X95	Y95	Z95	X96	Y96	Z96	X97	Y97	Z97	X98	Y98	Z98	X99	Y99	Z99	X100	Y100	Z100	X101	Y101	Z101	X102	Y102	Z102	X103	Y103	Z103	X104	Y104	Z104	X105	Y105	Z105	X106	Y106	Z106	X107	Y107	Z107	X108	Y108	Z108	X109	Y109	Z109	X110	Y110	Z110	X111	Y111	Z111	X112	Y112	Z112	X113	Y113	Z113	X114	Y114	Z114	X115	Y115	Z115	X116	Y116	Z116	X117	Y117	Z117	X118	Y118	Z118	X119	Y119	Z119	X120	Y120	Z120	X121	Y121	Z121	X122	Y122	Z122	X123	Y123	Z123	X124	Y124	Z124	X125	Y125	Z125	X126	Y126	Z126	X127	Y127	Z127	X128	Y128	Z128	X129	Y129	Z129	X130	Y130	Z130	X131	Y131	Z131	X132	Y132	Z132	X133	Y133	Z133	X134	Y134	Z134	X135	Y135	Z135	X136	Y136	Z136	X137	Y137	Z137	X138	Y138	Z138	X139	Y139	Z139	X140	Y140	Z140	X141	Y141	Z141	X142	Y142	Z142	X143	Y143	Z143	X144	Y144	Z144	X145	Y145	Z145	X146	Y146	Z146	X147	Y147	Z147	X148	Y148	Z148	X149	Y149	Z149	X150	Y150	Z150	X151	Y151	Z151	X152	Y152	Z152	X153	Y153	Z153	X154	Y154	Z154	X155	Y155	Z155	X156	Y156	Z156	X157	Y157	Z157	X158	Y158	Z158	X159	Y159	Z159	X160	Y160	Z160	X161	Y161	Z161	X162	Y162	Z162	X163	Y163	Z163	X164	Y164	Z164	X165	Y165	Z165	X166	Y166	Z166	X167	Y167	Z167	X168	Y168	Z168	X169	Y169	Z169	X170	Y170	Z170	X171	Y171	Z171	X172	Y172	Z172	X173	Y173	Z173	X174	Y174	Z174	X175	Y175	Z175	X176	Y176	Z176	X177	Y177	Z177	X178	Y178	Z178	X179	Y179	Z179	

1	0	-1221.473388671875	1282.6328125	230.3090362548826	-1349.244018554688	1276.640380859375	206.4502716064451	-1216.722290039062	1286.594848632812	344.5856628417966	-1352.6025390625	1292.021362304688	373.3485412597654	-1406.226318359375	1143.0205078125	291.5145568847654	-1445.091552734375	996.5799560546875	294.1325988769529	-1296.495849609375	1093.41455078125	287.8477783203123	-1272.196411132812	1037.364135742188	288.3064270019529	-1440.757446289062	1072.080322265625	377.7261047363279	-1363.791015625	1112.477905273438	153.2220611572263	-1424.89453125	923.9594116210938	111.3455581665037	-1432.81591796875	860.7952270507812	100.6260757446287	-1437.7626953125	787.444091796875	87.20616912841776	-1424.764526367188	658.753173828125	82.52336883544901	-1354.3583984375	662.7970581054688	75.97612762451151	-1365.874877929688	605.5924072265625	49.98220062255839	-1366.967407226562	1117.823486328125	425.293029785156	-1392.716186523438	1013.838562011719	473.0189514160154	-1411.276977539062	861.5166015625	504.9096984863279	-1389.228637695312	711.8194580078125	517.8630981445311	-1378.147338867188	668.3311767578125	524.6323242187499	-1310.016357421875	685.3334350585938	507.7495422363279	-1297.824462890625	623.072998046875	532.3082275390624	-1440.823486328125	787.719970703125	296.9140624999998	-1301.028930664062	757.14697265625	193.0621643066404	-1305.46142578125	555.926513671875	167.7147064208982	-1345.185913085938	441.9967651367188	193.6812591552732	-1281.846435546875	459.506591796875	191.3327026367186	-1326.653442382812	228.5723724365234	199.5965728759764	-1423.073364257812	153.450927734375	210.7076416015623	-1280.44775390625	145.4530944824219	224.2020874023436	-1394.601928710938	52.38164520263673	283.8837890624998	-1243.162231445312	49.36759567260744	265.9134216308592	-1257.927124023438	568.6032104492188	450.4277343749998	-1248.887573242188	453.3618774414062	436.6017761230467	-1206.116821289062	480.8525695800781	438.3326721191404	-1316.36962890625	307.0711059570312	440.3082275390623	-1439.024291992188	297.7551879882812	421.8057556152342	-1323.5439453125	210.9495544433594	421.6448669433592	-1470.115844726562	202.6216430664063	354.0750427246092	-1374.550048828125	85.51023101806643	383.2393188476561	-1404.812622070312	779.719970703125	302.2506713867185	-1399.838134765625	778.616943359375	302.4445800781248	-1404.619140625	779.6968383789062	297.1554260253904	-1393.781616210938	829.5021362304688	302.4436035156248	-1309.616577148438	758.1727905273438	419.1958007812498	-1398.922485351562	87.16606903076175	411.3901062011717	-1255.518310546875	26.5280113220215	230.6666412353514	-1297.955810546875	392.8282165527344	209.1817474365232	-1190.443481445312	425.1153259277344	428.7871093749998	-1353.876953125	52.81988906860353	242.7910156249998	-1436.654541015625	181.3172912597657	400.2634887695311	-1299.344360351562	392.9618835449219	261.4083557128905	-1193.529174804688	417.3796081542969	376.6808471679686	-1342.769775390625	63.91854476928712	278.913848876953	-1417.732421875	176.5619506835938	365.9467163085936	-1320.453491210938	542.0328979492188	165.855758666992	-1265.2890625	567.4437866210938	461.1634521484373	-1346.785400390625	212.0033264160156	181.3353576660155	-1347.315673828125	311.8810119628906	453.1402893066405	256.7200012207031	0.07899999618532701	396.4200134277344	-254.2699890136719	-0.2560999989509441	231.3000030517578	-950.1600341796875	1.404999971389795	394.6300048828124	0	0	0	0	0	0	0	0	0	0	0	0	-1346.972290039062	694.9476928710938	253.6730194091795	-1351.4169921875	694.861083984375	355.5562744140623	-1288.976196289062	399.9417724609375	214.5398254394529	-1183.545532226562	411.7119750976562	426.5848693847655	-1297.515869140625	399.676513671875	266.0817260742186	-1187.173828125	411.3814086914062	373.943878173828	-0.2567292153835297	1.490978956222534	-0.08369667083024991	256.7200012207031	0.07899999618532701	396.4200134277344	256.7200012207031	0.07899999618532701	396.4200134277344	256.7200012207031	0.07899999618532701	396.4200134277344	-254.2699890136719	-0.2560999989509441	231.3000030517578	-254.3016357421875	-0.508408188819871	231.3088226318359	-254.2699890136719	-0.2560999989509441	231.3000030517578	-950.1600341796875	1.404999971389795	394.6300048828124	-950.1600341796875	1.404999971389795	394.6300048828124	-254.2699890136719	-0.2560999989509441	231.3000030517578	-12.49377727508545	2.179498195648193	0.2169533073902113	-12.49377727508545	-2.179498195648193	-0.2169533073902144	-2.861442327499389	-5.695423603057861	-2.386553287506104	-56.7110710144043	-8.02093505859375	-4.4287338256836	-21.50288772583008	-0.6262447237968445	0.8531253337860081	-42.23434066772461	8.851214408874512	-2.48270988464356	-16.41844367980957	-16.42218208312988	2.048685073852538	-72.51050567626953	-24.79303169250488	9.761981010437005	-4.990602016448975	9.092184066772461	-0.6249346733093274	13.97366809844971	17.09454345703125	3.611910820007325	1.987846778527783e-15	-3.975693398236888e-16	-7.454425154781387e-16	-3.18055471858951e-15	-1.987846778527783e-15	-1.590277359294755e-15	-10.68547534942627	0	-1.308593318404283e-15	9.057938575744629	0	1.109277548365899e-15	4.258711814880371	1.118154525756836	-3.134856939315795	4.258711814880371	-1.118154525756836	3.134856939315796	8.341246604919434	-3.922238349914551	-1.350633859634398	8.341246604919434	3.922238349914551	1.3506338596344	17.02363395690918	-9.913646697998047	8.382151603698732	-36.52111434936523	-4.923498674730409e-12	-4.07497723910047e-15	-8.341287612915039	96.10784912109375	2.873220205307	12.72986602783203	0.7304394245147713	12.56704425811768	-40.27225875854492	-7.18805332096395e-13	-2.148943873072955e-15	-14.42843437194824	96.07900238037109	-2.835761547088631	-4.11437463760376	1.888945341110229	0.8682541251182549	-4.11437463760376	-1.888945341110229	-0.8682541251182561	-0.1962811499834065	1.068138837814331	3.934388637542725	-0.1962811499834056	-1.068138837814331	-3.934388637542725	-6.853011442985675e-34	-0.09138812124729156	5.595908508279292e-18	-1.477228366854481e-35	-0.001969953300431371	1.206248501921521e-19	5.824583375458964e-35	0.007767355069518089	-4.756133261863148e-19	-1.086867080192753e-35	-0.001449388219043612	8.874943215868215e-20	1.318696614511934e-34	0.01758543774485588	-1.07679750229214e-18	6.84464568779062e-35	0.009127655997872353	-5.589077350756258e-19	nan	nan	nan	nan	nan	nan	nan	nan	nan	nan	nan	nan	9.290794518159063e-37	0.0001238971017301083	-7.586509452870555e-21	-1.793436949575602e-34	-0.02391632273793221	1.464452404419187e-18	7.61698350998109e-35	0.01015760470181704	-6.219739042542169e-19	-1.787734396943478e-34	-0.02384027652442455	1.459795916821216e-18	1.07212872906591e-35	0.001429733936674893	-8.754595445906261e-20	-2.336499667313755e-35	-0.00311583187431097	1.907896765778114e-19	256.7200012207031	0.07899999618532701	396.4200134277344	-254.3016204833985	-0.508408188819871	231.3088226318359	-950.1600341796875	1.404999971389795	394.6300048828124	-0.2567292153835297	1.490978956222534	-0.08369667083024991	-0.06114938855171202	0.8725159168243408	-0.09733264148235328	0.09180586785078049	0.6093794107437134	-0.04601457715034487	0.1121803596615791	0.09054221212863922	-0.07115923613309859	0.1467658579349518	-0.005100024398416282	-0.01374423038214443	0.08246152848005295	0.005500918719917536	0.003231414360925565	0	0	0	0	0	0	0	0	0	0	0	0	0	0	0	0	0	0	nan	nan	nan	nan	nan	nan	nan	nan	nan	nan	nan	nan	-0.1389319151639938	0.4152491986751556	-0.07438150048255925	-0.1340174823999405	0.4324098527431488	0.1666787862777709	0.07787085324525833	0.1938409358263016	-0.03195077553391457	0.08286019414663313	0.2093573212623596	0.09180799126625061	-0.01243029162287712	0.05404230207204819	-0.03149641305208206	-0.03178483620285989	0.05918464809656143	0.03881249204277991	256.7200012207031	0.07899999618532701	396.4200134277344	0	0	0	-254.3016204833985	-0.508408188819871	231.3088226318359	-0.03163701295852661	-0.252308189868927	0.008816275745630276	-950.1600341796875	1.404999971389795	394.6300048828124	-0.03163701295852661	-0.252308189868927	0.008816275745630276	44.04058456420899	2.528624296188353	-31.1737937927246	0.1526104062795629	1.192445278167725	8.127895355224609	10.05577373504639	-0.6188138723373419	-9.281385421752928	-12.47756099700928	4.555478572845459	3.800058364868162	7.000736713409424	-0.6611677408218384	0.2286013066768655	3.935824632644653	-0.1003851667046547	0.3639496266841893	nan	nan	nan	nan	nan	nan	nan	nan	nan	nan	nan	nan	nan	nan	nan	nan	nan	nan	-5.1348934173584	-2.301759004592895	14.70952987670898	-11.17426776885987	-9.65822124481201	41.23960494995117	12.92469882965088	0.04664456099271799	3.930717229843141	13.83756923675537	-0.5478878617286673	14.29440212249756	-0.4393499195575716	1.667784298512055e-15	1.663333773612976	-1.974043726921082	-2.502041033785143e-15	2.294102668762207	0	0	0	-8.811169624328615	-13.5677375793457	14.46193504333496	-8.811169624328615	-13.5677375793457	14.46193504333496	
2	0.006666666666666667	-1214.050537109375	1282.780517578125	229.8522033691404	-1341.88134765625	1276.760864257812	206.2989501953122	-1209.03857421875	1286.8291015625	344.1254882812498	-1344.851440429688	1292.271362304688	373.1930541992185	-1398.89697265625	1143.54345703125	291.5299987792966	-1438.269897460938	997.220458984375	294.3190917968748	-1289.367553710938	1093.607666015625	287.7863464355466	-1265.2470703125	1037.462524414062	288.1571655273435	-1433.4912109375	1072.700439453125	377.7723999023435	-1356.463745117188	1112.999877929688	153.2373962402341	-1416.259887695312	924.3323974609375	109.9897842407224	-1423.5888671875	861.0775756835938	98.79524993896462	-1427.339233398438	787.6464233398438	84.78428649902322	-1412.35791015625	659.1732177734375	79.23691558837869	-1341.976440429688	664.3832397460938	73.63372039794901	-1352.203735351562	607.4474487304688	46.72834396362285	-1359.454345703125	1118.039428710938	425.3453369140623	-1385.703979492188	1014.044677734375	472.9868469238279	-1405.228759765625	861.8232421875	504.1119995117185	-1386.652099609375	711.6337890625	516.1427001953124	-1376.644775390625	667.8936767578125	522.6766357421874	-1307.991333007812	683.3305053710938	506.4343261718748	-1297.701171875	620.3547973632812	530.4902343749999	-1434.156372070312	788.1028442382812	297.7276611328123	-1295.195434570312	757.427490234375	192.6767578124998	-1301.051025390625	555.8283081054688	167.8023986816404	-1341.823120117188	442.306884765625	193.5733184814451	-1278.337158203125	459.1623840332031	191.2820434570311	-1325.135009765625	228.3587341308594	199.4083251953123	-1422.193603515625	154.0126342773438	210.4414672851561	-1279.6318359375	144.9156799316406	224.2954254150389	-1394.457885742188	52.53100204467775	283.9060668945311	-1243.114013671875	49.2734718322754	265.8447265624998	-1247.458862304688	570.7708740234375	449.5878601074216	-1237.000122070312	455.6403503417969	435.8516540527342	-1194.564819335938	483.7752990722656	436.7030334472654	-1302.150634765625	306.9256591796875	439.3636169433592	-1424.4384765625	293.9335021972656	420.645782470703	-1306.476196289062	210.5210571289063	421.662384033203	-1452.829711914062	196.8696594238282	354.0802612304686	-1352.582275390625	83.92671966552737	384.0046386718748	-1398.076782226562	780.1411743164062	302.6664733886716	-1393.099975585938	779.0429077148438	302.8208312988279	-1397.926147460938	780.1074829101562	297.5698242187498	-1387.088623046875	829.9331665039062	302.6621398925779	-1301.881591796875	758.9228515625	418.8322753906248	-1376.918701171875	84.79211425781253	412.1159057617186	-1255.507202148438	26.43391418457033	230.5442962646483	-1295.063110351562	392.6064147949219	209.0292053222654	-1178.274780273438	428.2442626953125	426.9856567382811	-1353.84912109375	52.91488647460939	242.8913116455076	-1418.701049804688	177.4106903076172	400.2746276855467	-1296.463256835938	392.675537109375	261.255645751953	-1182.236572265625	420.3322143554688	374.9651794433592	-1342.740234375	63.9988250732422	279.0181579589842	-1399.5556640625	172.8556823730469	366.0546569824217	-1315.80322265625	542.1268920898438	165.7993774414061	-1254.456665039062	569.6715087890625	460.1452331542966	-1345.237915039062	212.0163269042969	181.252471923828	-1333.263061523438	311.120361328125	452.140899658203	256.7200012207031	0.07899999618532701	396.4200134277344	-254.2699890136719	-0.2560999989509441	231.3000030517578	-950.1600341796875	1.404999971389795	394.6300048828124	0	0	0	0	0	0	0	0	0	0	0	0	-1340.572387695312	695.3165283203125	253.7825775146482	-1344.160278320312	695.4409790039062	355.6995544433591	-1286.140014648438	399.4552001953125	214.0965270996092	-1172.316040039062	415.1611022949219	424.9296569824217	-1294.8037109375	399.362060546875	265.6183166503905	-1175.786499023438	414.2058410644531	372.2856445312498	-0.2523878216743469	1.491696953773499	-0.08887127786874784	256.7200012207031	0.07899999618532701	396.4200134277344	256.7200012207031	0.07899999618532701	396.4200134277344	256.7200012207031	0.07899999618532701	396.4200134277344	-254.2699890136719	-0.2560999989509441	231.3000030517578	-254.3016357421875	-0.508408188819871	231.3088226318359	-254.2699890136719	-0.2560999989509441	231.3000030517578	-950.1600341796875	1.404999971389795	394.6300048828124	-950.1600341796875	1.404999971389795	394.6300048828124	-254.2699890136719	-0.2560999989509441	231.3000030517578	-12.44466781616211	1.735226392745972	-0.0049104988574998	-12.44466781616211	-1.735226392745972	0.004910498857496752	-2.95741319656372	-5.787899017333984	-2.370078563690186	-54.24467086791992	-8.350979804992676	-4.021868705749517	-20.76774597167969	-0.1123324111104011	0.7802508473396276	-42.9881477355957	9.364069938659668	-2.267588376998907	-16.24150085449219	-16.27268600463867	2.142409324645995	-71.59944152832031	-26.04884338378906	10.31681823730468	-5.398574352264404	8.857596397399902	-0.6542976498603833	13.19781589508057	17.4275951385498	3.479749679565431	-7.951386796473777e-16	2.814786649644531e-32	4.59689545035237e-16	1.460646090778751e-31	7.951386796473775e-16	-1.192708045940846e-15	-11.1048755645752	0	-1.359955031508667e-15	8.275611877441406	0	1.013470159669444e-15	4.457596778869629	1.085911512374878	-3.167829751968383	4.457596778869629	-1.085911512374878	3.167829751968384	8.102876663208008	-3.561203479766846	-1.15624976158142	8.102876663208008	3.561203479766846	1.156249761581422	16.25758934020996	-9.514767646789551	8.874279975891115	-36.81904983520508	-5.325838728365007e-12	-6.496879931360535e-15	-8.659987449645996	96.44637298583984	3.107616901397698	13.03775882720947	1.181743383407593	12.39918804168701	-39.63784408569336	4.273075383115499e-12	-5.450589911435306e-15	-13.91929721832275	95.36492156982422	-2.764422893524177	-4.308099746704102	1.971641898155212	0.891614377498626	-4.308099746704102	-1.971641898155212	-0.8916143774986272	-0.2088122367858892	1.201102137565613	3.977768182754517	-0.2088122367858882	-1.201102137565613	-3.977768182754517	-6.683502866957448e-34	-0.08912764489650726	5.457494251902477e-18	-1.435551139354627e-35	-0.001914374763146043	1.172216463027637e-19	5.670245919228107e-35	0.007561538834124804	-4.630107164919675e-19	-5.548740706897296e-35	-0.007399505935609341	4.53089062965791e-19	1.192646973220816e-34	0.01590450666844845	-9.738701591766563e-19	6.496016451464323e-35	0.00866274256259203	-5.304399975557935e-19	nan	nan	nan	nan	nan	nan	nan	nan	nan	nan	nan	nan	-9.848148955509121e-36	-0.001313296845182776	8.041623888917022e-20	-1.711476181845676e-34	-0.02282333746552467	1.397526358650733e-18	7.402918145744071e-35	0.009872138500213623	-6.044941407512983e-19	-1.76098811633456e-34	-0.02348360233008862	1.437955921299617e-18	9.944116852972002e-36	0.001326094614341855	-8.119987624101482e-20	-2.335159126767381e-35	-0.003114044200628996	1.906802131351839e-19	256.7200012207031	0.07899999618532701	396.4200134277344	-254.3016204833985	-0.508408188819871	231.3088226318359	-950.1600341796875	1.404999971389795	394.6300048828124	-0.2523878514766693	1.491696953773499	-0.08887127786874784	-0.05341780930757521	0.8541614413261414	-0.0966122448444367	0.09344522655010223	0.6093438863754272	-0.05143750086426737	0.1154973134398461	0.1045821458101273	-0.07683262228965758	0.1466954946517944	-0.004755696281790734	-0.0145945120602846	0.0914754644036293	0.0001319024740951138	0.003636042121797811	0	0	0	0	0	0	0	0	0	0	0	0	0	0	0	0	0	0	nan	nan	nan	nan	nan	nan	nan	nan	nan	nan	nan	nan	-0.1362939476966858	0.4122094810009003	-0.07150789350271229	-0.1309999078512192	0.4330076277256012	0.1620158702135086	0.07721444964408875	0.192511647939682	-0.02997692674398422	0.08350919187068938	0.2093850374221802	0.08986279368400574	-0.0122170215472579	0.05363254249095917	-0.03081163950264454	-0.03138440102338792	0.05916502699255943	0.03988823294639586	256.7200012207031	0.07899999618532701	396.4200134277344	0	0	0	-254.3016204833985	-0.508408188819871	231.3088226318359	-0.03163701295852661	-0.252308189868927	0.008816275745630276	-950.1600341796875	1.404999971389795	394.6300048828124	-0.03163701295852661	-0.252308189868927	0.008816275745630276	42.94113540649415	2.758152961730955	-33.95240020751952	-2.398167133331299	3.155213832855225	4.507453441619873	10.45308303833008	-0.584952592849732	-9.693067550659178	-9.714933395385742	2.533081293106079	3.045186519622801	7.043187141418457	-0.7059345245361328	0.2281804978847513	4.363160133361816	-0.1486667841672897	0.3538718223571783	nan	nan	nan	nan	nan	nan	nan	nan	nan	nan	nan	nan	nan	nan	nan	nan	nan	nan	-5.536790847778322	-2.161650657653808	13.74734210968018	-10.08593654632569	-9.531341552734373	40.40214920043945	12.55470275878906	0.05082378536462806	3.674911022186281	14.32318305969238	-0.5408653616905204	14.28806495666504	-0.4279716610908511	5.873486556208061e-16	1.600365281105042	-1.979226231575012	-1.467162464875151e-15	2.412245512008667	0	0	0	-8.811169624328615	-13.5677375793457	14.46193504333496	-8.811169624328615	-13.5677375793457	14.46193504333496	
